<svg width="36" height="36" viewBox="0 0 36 36" fill="none" xmlns="http://www.w3.org/2000/svg">
<path d="M24 12C25.1935 12 26.3381 12.4741 27.182 13.318C28.0259 14.1619 28.5 15.3065 28.5 16.5V28.5C28.5 29.6935 28.0259 30.8381 27.182 31.682C26.3381 32.5259 25.1935 33 24 33H10.5C9.30653 33 8.16193 32.5259 7.31802 31.682C6.47411 30.8381 6 29.6935 6 28.5V16.5C6 15.3065 6.47411 14.1619 7.31802 13.318C8.16193 12.4741 9.30653 12 10.5 12V9.75C10.5 7.95979 11.2112 6.2429 12.477 4.97703C13.7429 3.71116 15.4598 3 17.25 3C19.0402 3 20.7571 3.71116 22.023 4.97703C23.2888 6.2429 24 7.95979 24 9.75V12ZM10.5 13.5C9.70435 13.5 8.94129 13.8161 8.37868 14.3787C7.81607 14.9413 7.5 15.7044 7.5 16.5V28.5C7.5 29.2956 7.81607 30.0587 8.37868 30.6213C8.94129 31.1839 9.70435 31.5 10.5 31.5H24C24.7956 31.5 25.5587 31.1839 26.1213 30.6213C26.6839 30.0587 27 29.2956 27 28.5V16.5C27 15.7044 26.6839 14.9413 26.1213 14.3787C25.5587 13.8161 24.7956 13.5 24 13.5H10.5ZM22.5 12V9.75C22.5 8.35761 21.9469 7.02226 20.9623 6.03769C19.9777 5.05312 18.6424 4.5 17.25 4.5C15.8576 4.5 14.5223 5.05312 13.5377 6.03769C12.5531 7.02226 12 8.35761 12 9.75V12H22.5ZM17.25 21C16.6533 21 16.081 21.2371 15.659 21.659C15.2371 22.081 15 22.6533 15 23.25C15 23.8467 15.2371 24.419 15.659 24.841C16.081 25.2629 16.6533 25.5 17.25 25.5C17.8467 25.5 18.419 25.2629 18.841 24.841C19.2629 24.419 19.5 23.8467 19.5 23.25C19.5 22.6533 19.2629 22.081 18.841 21.659C18.419 21.2371 17.8467 21 17.25 21ZM17.25 19.5C18.2446 19.5 19.1984 19.8951 19.9017 20.5984C20.6049 21.3016 21 22.2554 21 23.25C21 24.2446 20.6049 25.1984 19.9017 25.9016C19.1984 26.6049 18.2446 27 17.25 27C16.2554 27 15.3016 26.6049 14.5983 25.9016C13.8951 25.1984 13.5 24.2446 13.5 23.25C13.5 22.2554 13.8951 21.3016 14.5983 20.5984C15.3016 19.8951 16.2554 19.5 17.25 19.5Z" fill="white" fill-opacity="0.886"/>
</svg>
