<svg width="36" height="36" viewBox="0 0 36 36" fill="none" xmlns="http://www.w3.org/2000/svg">
<path d="M10.5 3H12C12.3978 3 12.7794 3.15804 13.0607 3.43934C13.342 3.72064 13.5 4.10218 13.5 4.5V6H21V4.5C21 4.10218 21.158 3.72064 21.4393 3.43934C21.7206 3.15804 22.1022 3 22.5 3H24C24.3978 3 24.7794 3.15804 25.0607 3.43934C25.342 3.72064 25.5 4.10218 25.5 4.5V6C26.6935 6 27.8381 6.47411 28.682 7.31802C29.5259 8.16193 30 9.30653 30 10.5V27C30 28.1935 29.5259 29.3381 28.682 30.182C27.8381 31.0259 26.6935 31.5 25.5 31.5H9C7.80653 31.5 6.66193 31.0259 5.81802 30.182C4.97411 29.3381 4.5 28.1935 4.5 27V10.5C4.5 9.30653 4.97411 8.16193 5.81802 7.31802C6.66193 6.47411 7.80653 6 9 6V4.5C9 4.10218 9.15804 3.72064 9.43934 3.43934C9.72064 3.15804 10.1022 3 10.5 3ZM22.5 6H24V4.5H22.5V6ZM12 6V4.5H10.5V6H12ZM9 7.5C8.20435 7.5 7.44129 7.81607 6.87868 8.37868C6.31607 8.94129 6 9.70435 6 10.5V12H28.5V10.5C28.5 9.70435 28.1839 8.94129 27.6213 8.37868C27.0587 7.81607 26.2956 7.5 25.5 7.5H9ZM6 27C6 27.7957 6.31607 28.5587 6.87868 29.1213C7.44129 29.6839 8.20435 30 9 30H25.5C26.2956 30 27.0587 29.6839 27.6213 29.1213C28.1839 28.5587 28.5 27.7957 28.5 27V13.5H6V27ZM18 19.5H25.5V27H18V19.5ZM19.5 21V25.5H24V21H19.5Z" fill="white"/>
</svg>
