<svg width="36" height="36" viewBox="0 0 36 36" fill="none" xmlns="http://www.w3.org/2000/svg">
<path d="M33.71 17.29L18.71 2.29C18.5226 2.10375 18.2692 1.99921 18.005 1.99921C17.7408 1.99921 17.4874 2.10375 17.3 2.29L2.3 17.29C2.13617 17.4813 2.05056 17.7274 2.06029 17.9791C2.07001 18.2307 2.17434 18.4695 2.35243 18.6476C2.53053 18.8257 2.76927 18.93 3.02094 18.9397C3.27262 18.9494 3.5187 18.8638 3.71 18.7L18 4.41L32.29 18.71C32.4813 18.8738 32.7274 18.9594 32.979 18.9497C33.2307 18.94 33.4695 18.8357 33.6476 18.6576C33.8257 18.4795 33.93 18.2407 33.9397 17.9891C33.9494 17.7374 33.8638 17.4913 33.7 17.3L33.71 17.29Z" fill="white"/>
<path d="M28 32H23V22H13V32H8V18L6 20V32C6 32.5304 6.21071 33.0392 6.58579 33.4142C6.96086 33.7893 7.46957 34 8 34H15V24H21V34H28C28.5304 34 29.0391 33.7893 29.4142 33.4142C29.7893 33.0392 30 32.5304 30 32V19.76L28 17.76V32Z" fill="white"/>
</svg>
