<svg width="36" height="36" viewBox="0 0 36 36" fill="none" xmlns="http://www.w3.org/2000/svg">
<path d="M17.25 24C23.463 24 28.5 26.3505 28.5 29.25V33H6V29.25C6 26.3505 11.037 24 17.25 24ZM27 29.25C27 27.18 22.635 25.5 17.25 25.5C11.865 25.5 7.5 27.18 7.5 29.25V31.5H27V29.25ZM17.25 10.5C18.6424 10.5 19.9777 11.0531 20.9623 12.0377C21.9469 13.0223 22.5 14.3576 22.5 15.75C22.5 17.1424 21.9469 18.4777 20.9623 19.4623C19.9777 20.4469 18.6424 21 17.25 21C15.8576 21 14.5223 20.4469 13.5377 19.4623C12.5531 18.4777 12 17.1424 12 15.75C12 14.3576 12.5531 13.0223 13.5377 12.0377C14.5223 11.0531 15.8576 10.5 17.25 10.5ZM17.25 12C16.2554 12 15.3016 12.3951 14.5983 13.0983C13.8951 13.8016 13.5 14.7554 13.5 15.75C13.5 16.7446 13.8951 17.6984 14.5983 18.4017C15.3016 19.1049 16.2554 19.5 17.25 19.5C18.2446 19.5 19.1984 19.1049 19.9017 18.4017C20.6049 17.6984 21 16.7446 21 15.75C21 14.7554 20.6049 13.8016 19.9017 13.0983C19.1984 12.3951 18.2446 12 17.25 12Z" fill="white"/>
</svg>
